<svg width="164" height="100" viewBox="0 0 164 100" fill="none" xmlns="http://www.w3.org/2000/svg">
<rect x="12.2701" y="14.6642" width="151.431" height="84.3942" rx="12.2701" stroke="#0986F9" stroke-width="0.59854"/>
<rect x="6.88325" y="7.48175" width="151.431" height="84.3942" rx="12.2701" fill="white" stroke="#0986F9" stroke-width="0.59854"/>
<rect x="0.29927" y="0.29927" width="151.431" height="84.3942" rx="12.2701" fill="white" stroke="#0986F9" stroke-width="0.59854"/>
<path d="M0.299316 11.073L151.431 11.3723" stroke="#0986F9" stroke-width="0.59854"/>
<circle cx="10.7738" cy="5.98541" r="2.09489" stroke="#0986F9" stroke-width="0.59854"/>
<circle cx="17.3577" cy="5.98541" r="2.09489" stroke="#0986F9" stroke-width="0.59854"/>
<circle cx="23.9415" cy="5.98541" r="2.09489" stroke="#0986F9" stroke-width="0.59854"/>
<path d="M23.2342 42.5401V28.6105H31.5865V30.1068H24.921V34.8135H30.9608V36.3099H24.921V42.5401H23.2342ZM34.1456 42.5401V32.0929H35.6964V33.6709H35.8052C35.9956 33.1539 36.3403 32.7345 36.839 32.4126C37.3378 32.0906 37.9001 31.9297 38.5258 31.9297C38.6437 31.9297 38.7911 31.9319 38.9679 31.9365C39.1448 31.941 39.2785 31.9478 39.3692 31.9569V33.5893C39.3148 33.5756 39.1901 33.5552 38.9951 33.528C38.8047 33.4963 38.6029 33.4804 38.3898 33.4804C37.882 33.4804 37.4285 33.587 37.0295 33.8001C36.635 34.0087 36.3221 34.2989 36.0909 34.6707C35.8641 35.038 35.7508 35.4574 35.7508 35.929V42.5401H34.1456ZM45.1982 42.7578C44.255 42.7578 43.4275 42.5333 42.7156 42.0844C42.0083 41.6355 41.4551 41.0075 41.056 40.2004C40.6615 39.3933 40.4643 38.4501 40.4643 37.3709C40.4643 36.2827 40.6615 35.3327 41.056 34.5211C41.4551 33.7094 42.0083 33.0791 42.7156 32.6302C43.4275 32.1813 44.255 31.9569 45.1982 31.9569C46.1414 31.9569 46.9666 32.1813 47.674 32.6302C48.3859 33.0791 48.9391 33.7094 49.3336 34.5211C49.7326 35.3327 49.9321 36.2827 49.9321 37.3709C49.9321 38.4501 49.7326 39.3933 49.3336 40.2004C48.9391 41.0075 48.3859 41.6355 47.674 42.0844C46.9666 42.5333 46.1414 42.7578 45.1982 42.7578ZM45.1982 41.3159C45.9146 41.3159 46.5041 41.1322 46.9666 40.7649C47.4291 40.3976 47.7715 39.9147 47.9937 39.3162C48.2158 38.7177 48.3269 38.0692 48.3269 37.3709C48.3269 36.6726 48.2158 36.022 47.9937 35.4189C47.7715 34.8158 47.4291 34.3284 46.9666 33.9565C46.5041 33.5847 45.9146 33.3988 45.1982 33.3988C44.4818 33.3988 43.8923 33.5847 43.4298 33.9565C42.9673 34.3284 42.6249 34.8158 42.4027 35.4189C42.1806 36.022 42.0695 36.6726 42.0695 37.3709C42.0695 38.0692 42.1806 38.7177 42.4027 39.3162C42.6249 39.9147 42.9673 40.3976 43.4298 40.7649C43.8923 41.1322 44.4818 41.3159 45.1982 41.3159ZM53.9876 36.2555V42.5401H52.3824V32.0929H53.9331V33.7253H54.0692C54.314 33.1948 54.6859 32.7685 55.1846 32.4466C55.6834 32.1201 56.3273 31.9569 57.1163 31.9569C57.8237 31.9569 58.4426 32.102 58.9731 32.3922C59.5037 32.6778 59.9163 33.1131 60.211 33.6981C60.5058 34.2785 60.6531 35.0131 60.6531 35.9018V42.5401H59.0479V36.0106C59.0479 35.1899 58.8348 34.5505 58.4086 34.0926C57.9824 33.6301 57.3974 33.3988 56.6538 33.3988C56.1414 33.3988 55.6834 33.5099 55.2799 33.7321C54.8808 33.9543 54.5657 34.2785 54.3344 34.7047C54.1032 35.1309 53.9876 35.6479 53.9876 36.2555ZM68.1298 32.0929V33.4532H62.7157V32.0929H68.1298ZM64.2937 29.5899H65.8988V39.5474C65.8988 40.0009 65.9646 40.341 66.0961 40.5677C66.2321 40.7899 66.4044 40.9395 66.613 41.0166C66.8261 41.0891 67.0506 41.1254 67.2864 41.1254C67.4632 41.1254 67.6083 41.1163 67.7217 41.0982C67.835 41.0755 67.9257 41.0574 67.9937 41.0438L68.3202 42.4857C68.2114 42.5265 68.0595 42.5674 67.8645 42.6082C67.6695 42.6535 67.4224 42.6762 67.1231 42.6762C66.6697 42.6762 66.2253 42.5787 65.79 42.3837C65.3593 42.1887 65.001 41.8917 64.7154 41.4927C64.4342 41.0937 64.2937 40.5904 64.2937 39.9827V29.5899ZM74.8123 42.7578C73.8057 42.7578 72.9374 42.5356 72.2073 42.0912C71.4818 41.6423 70.9218 41.0166 70.5273 40.214C70.1374 39.4069 69.9424 38.4683 69.9424 37.3981C69.9424 36.328 70.1374 35.3849 70.5273 34.5687C70.9218 33.748 71.4705 33.1086 72.1733 32.6506C72.8807 32.1881 73.7059 31.9569 74.6491 31.9569C75.1932 31.9569 75.7305 32.0476 76.2611 32.2289C76.7916 32.4103 77.2745 32.705 77.7098 33.1131C78.1451 33.5167 78.492 34.0518 78.7505 34.7183C79.0089 35.3849 79.1381 36.2056 79.1381 37.1805V37.8607H71.0851V36.4731H77.5058C77.5058 35.8837 77.3879 35.3577 77.1521 34.8952C76.9208 34.4326 76.5898 34.0676 76.159 33.8001C75.7328 33.5326 75.2295 33.3988 74.6491 33.3988C74.0097 33.3988 73.4565 33.5575 72.9895 33.8749C72.527 34.1878 72.171 34.5959 71.9217 35.0992C71.6723 35.6025 71.5476 36.1421 71.5476 36.718V37.643C71.5476 38.432 71.6836 39.1008 71.9557 39.6495C72.2323 40.1936 72.6154 40.6085 73.1051 40.8942C73.5948 41.1753 74.1639 41.3159 74.8123 41.3159C75.234 41.3159 75.6149 41.2569 75.955 41.139C76.2996 41.0166 76.5966 40.8352 76.846 40.5949C77.0954 40.35 77.2881 40.0462 77.4241 39.6835L78.9749 40.1188C78.8117 40.6448 78.5373 41.1073 78.1519 41.5063C77.7665 41.9008 77.2904 42.2091 76.7236 42.4313C76.1568 42.649 75.5197 42.7578 74.8123 42.7578ZM83.1851 36.2555V42.5401H81.5799V32.0929H83.1307V33.7253H83.2667C83.5116 33.1948 83.8834 32.7685 84.3822 32.4466C84.881 32.1201 85.5248 31.9569 86.3138 31.9569C87.0212 31.9569 87.6401 32.102 88.1707 32.3922C88.7012 32.6778 89.1138 33.1131 89.4086 33.6981C89.7033 34.2785 89.8507 35.0131 89.8507 35.9018V42.5401H88.2455V36.0106C88.2455 35.1899 88.0324 34.5505 87.6061 34.0926C87.1799 33.6301 86.595 33.3988 85.8513 33.3988C85.3389 33.3988 84.881 33.5099 84.4774 33.7321C84.0784 33.9543 83.7632 34.2785 83.532 34.7047C83.3007 35.1309 83.1851 35.6479 83.1851 36.2555ZM96.7288 42.7578C95.8582 42.7578 95.0896 42.5379 94.423 42.098C93.7565 41.6537 93.235 41.0279 92.8587 40.2208C92.4823 39.4091 92.2941 38.4501 92.2941 37.3437C92.2941 36.2464 92.4823 35.2942 92.8587 34.4871C93.235 33.6799 93.7587 33.0565 94.4298 32.6166C95.1009 32.1768 95.8763 31.9569 96.756 31.9569C97.4361 31.9569 97.9735 32.0702 98.3679 32.2969C98.767 32.5191 99.0708 32.7731 99.2794 33.0587C99.4925 33.3399 99.658 33.5711 99.7759 33.7525H99.9119V28.6105H101.517V42.5401H99.9663V40.935H99.7759C99.658 41.1254 99.4902 41.3657 99.2726 41.6559C99.0549 41.9416 98.7443 42.1978 98.3407 42.4245C97.9372 42.6467 97.3999 42.7578 96.7288 42.7578ZM96.9464 41.3159C97.5903 41.3159 98.1344 41.1481 98.5788 40.8125C99.0232 40.4725 99.361 40.0032 99.5922 39.4046C99.8235 38.8015 99.9391 38.1055 99.9391 37.3165C99.9391 36.5366 99.8258 35.8542 99.599 35.2692C99.3723 34.6798 99.0368 34.2218 98.5924 33.8953C98.148 33.5643 97.5994 33.3988 96.9464 33.3988C96.2663 33.3988 95.6995 33.5734 95.246 33.9225C94.7971 34.2671 94.4593 34.7365 94.2326 35.3305C94.0104 35.9199 93.8993 36.582 93.8993 37.3165C93.8993 38.0602 94.0127 38.7358 94.2394 39.3434C94.4706 39.9465 94.8107 40.4271 95.2596 40.7853C95.7131 41.139 96.2753 41.3159 96.9464 41.3159ZM35.0485 51.4872H32.0694C32.015 51.1018 31.9039 50.7595 31.7361 50.4602C31.5684 50.1564 31.353 49.8979 31.09 49.6848C30.827 49.4717 30.5232 49.3084 30.1786 49.1951C29.8385 49.0817 29.469 49.0251 29.0699 49.0251C28.349 49.0251 27.7209 49.2042 27.1859 49.5624C26.6508 49.9161 26.2359 50.433 25.9412 51.1131C25.6465 51.7888 25.4991 52.6095 25.4991 53.5753C25.4991 54.5683 25.6465 55.4027 25.9412 56.0783C26.2405 56.7539 26.6576 57.264 27.1927 57.6087C27.7277 57.9533 28.3467 58.1256 29.0495 58.1256C29.444 58.1256 29.809 58.0734 30.1446 57.9691C30.4847 57.8649 30.7862 57.713 31.0492 57.5134C31.3122 57.3094 31.5298 57.0623 31.7021 56.7721C31.879 56.4819 32.0014 56.1509 32.0694 55.779L35.0485 55.7926C34.9714 56.432 34.7787 57.0487 34.4704 57.6427C34.1666 58.2321 33.7562 58.7604 33.2393 59.2274C32.7269 59.6899 32.1148 60.0572 31.4029 60.3293C30.6955 60.5968 29.8952 60.7306 29.0019 60.7306C27.7595 60.7306 26.6486 60.4495 25.6691 59.8872C24.6942 59.3249 23.9234 58.511 23.3566 57.4454C22.7943 56.3798 22.5132 55.0898 22.5132 53.5753C22.5132 52.0563 22.7989 50.764 23.3702 49.6984C23.9415 48.6328 24.7169 47.8212 25.6963 47.2634C26.6758 46.7012 27.7776 46.42 29.0019 46.42C29.809 46.42 30.5572 46.5334 31.2464 46.7601C31.9402 46.9868 32.5546 47.3178 33.0897 47.7532C33.6247 48.1839 34.06 48.7122 34.3956 49.3379C34.7357 49.9637 34.9533 50.6801 35.0485 51.4872ZM40.0851 60.7374C39.4185 60.7374 38.8245 60.6218 38.3031 60.3905C37.7816 60.1547 37.369 59.8078 37.0652 59.3499C36.7659 58.8874 36.6163 58.3115 36.6163 57.6223C36.6163 57.0419 36.7228 56.5544 36.936 56.1599C37.1491 55.7654 37.4393 55.448 37.8066 55.2077C38.1739 54.9674 38.591 54.786 39.0581 54.6636C39.5296 54.5411 40.0239 54.455 40.5408 54.4051C41.1484 54.3416 41.6381 54.2827 42.01 54.2283C42.3818 54.1693 42.6516 54.0832 42.8193 53.9698C42.9871 53.8564 43.071 53.6887 43.071 53.4665V53.4257C43.071 52.9949 42.935 52.6616 42.6629 52.4258C42.3954 52.1901 42.0145 52.0722 41.5202 52.0722C40.9988 52.0722 40.5839 52.1878 40.2755 52.419C39.9672 52.6458 39.7632 52.9314 39.6634 53.276L36.9836 53.0584C37.1196 52.4236 37.3871 51.8749 37.7862 51.4124C38.1852 50.9454 38.6998 50.5871 39.3301 50.3378C39.9649 50.0838 40.6995 49.9569 41.5338 49.9569C42.1142 49.9569 42.6697 50.0249 43.2002 50.1609C43.7353 50.2969 44.2091 50.5078 44.6218 50.7935C45.0389 51.0791 45.3677 51.4464 45.608 51.8953C45.8483 52.3397 45.9685 52.8725 45.9685 53.4937V60.5401H43.2206V59.0914H43.139C42.9712 59.4179 42.7468 59.7058 42.4657 59.9552C42.1845 60.2001 41.8467 60.3928 41.4522 60.5333C41.0577 60.6694 40.602 60.7374 40.0851 60.7374ZM40.9149 58.7377C41.3411 58.7377 41.7175 58.6538 42.044 58.4861C42.3704 58.3138 42.6266 58.0825 42.8125 57.7923C42.9985 57.5021 43.0914 57.1734 43.0914 56.8061V55.6974C43.0007 55.7564 42.876 55.8108 42.7173 55.8607C42.5631 55.906 42.3886 55.9491 42.1936 55.9899C41.9986 56.0262 41.8036 56.0602 41.6087 56.0919C41.4137 56.1191 41.2368 56.144 41.0781 56.1667C40.7381 56.2166 40.4411 56.296 40.1871 56.4048C39.9332 56.5136 39.736 56.661 39.5954 56.8469C39.4548 57.0283 39.3845 57.255 39.3845 57.527C39.3845 57.9215 39.5274 58.2231 39.813 58.4317C40.1032 58.6357 40.4705 58.7377 40.9149 58.7377ZM48.2164 60.5401V50.0929H51.0255V51.9157H51.1343C51.3247 51.2673 51.6444 50.7776 52.0933 50.4466C52.5422 50.111 53.0591 49.9433 53.6441 49.9433C53.7892 49.9433 53.9456 49.9523 54.1134 49.9705C54.2812 49.9886 54.4285 50.0135 54.5555 50.0453V52.6163C54.4195 52.5755 54.2313 52.5392 53.991 52.5075C53.7506 52.4757 53.5307 52.4599 53.3312 52.4599C52.905 52.4599 52.5241 52.5528 52.1885 52.7387C51.8575 52.9201 51.5945 53.174 51.3996 53.5005C51.2091 53.827 51.1139 54.2033 51.1139 54.6296V60.5401H48.2164ZM59.4169 60.7102C58.6234 60.7102 57.9047 60.5061 57.2608 60.098C56.6215 59.6854 56.1136 59.0801 55.7373 58.282C55.3654 57.4794 55.1795 56.4955 55.1795 55.3301C55.1795 54.133 55.3722 53.1377 55.7577 52.3442C56.1431 51.5462 56.6555 50.9499 57.2948 50.5554C57.9387 50.1564 58.6438 49.9569 59.4101 49.9569C59.9951 49.9569 60.4825 50.0566 60.8725 50.2561C61.267 50.4511 61.5844 50.696 61.8247 50.9907C62.0696 51.2809 62.2555 51.5666 62.3824 51.8477H62.4708V46.6105H65.3615V60.5401H62.5049V58.867H62.3824C62.2464 59.1572 62.0537 59.4451 61.8043 59.7308C61.5594 60.0119 61.2398 60.2454 60.8453 60.4313C60.4553 60.6172 59.9792 60.7102 59.4169 60.7102ZM60.3351 58.4044C60.8022 58.4044 61.1967 58.2775 61.5186 58.0236C61.8451 57.7651 62.0945 57.4046 62.2668 56.9421C62.4436 56.4796 62.5321 55.9377 62.5321 55.3165C62.5321 54.6953 62.4459 54.1557 62.2736 53.6977C62.1013 53.2398 61.8519 52.8861 61.5254 52.6367C61.1989 52.3873 60.8022 52.2626 60.3351 52.2626C59.859 52.2626 59.4577 52.3918 59.1313 52.6503C58.8048 52.9088 58.5577 53.267 58.3899 53.725C58.2221 54.1829 58.1382 54.7134 58.1382 55.3165C58.1382 55.9241 58.2221 56.4615 58.3899 56.9285C58.5622 57.391 58.8093 57.7538 59.1313 58.0168C59.4577 58.2752 59.859 58.4044 60.3351 58.4044ZM76.4362 53.072L73.7836 53.2352C73.7383 53.0085 73.6408 52.8045 73.4911 52.6231C73.3415 52.4372 73.1442 52.2898 72.8994 52.181C72.6591 52.0676 72.3711 52.0109 72.0356 52.0109C71.5867 52.0109 71.2081 52.1062 70.8997 52.2966C70.5914 52.4825 70.4372 52.7319 70.4372 53.0448C70.4372 53.2942 70.537 53.505 70.7365 53.6773C70.936 53.8496 71.2783 53.9879 71.7635 54.0922L73.6544 54.4731C74.6701 54.6817 75.4273 55.0173 75.9261 55.4798C76.4249 55.9423 76.6743 56.5499 76.6743 57.3026C76.6743 57.9873 76.4725 58.5881 76.0689 59.105C75.6699 59.6219 75.1212 60.0255 74.4229 60.3157C73.7292 60.6014 72.9289 60.7442 72.022 60.7442C70.639 60.7442 69.5371 60.4563 68.7164 59.8804C67.9002 59.3 67.4218 58.511 67.2813 57.5134L70.1311 57.3638C70.2173 57.7855 70.4259 58.1074 70.7569 58.3296C71.0879 58.5473 71.5119 58.6561 72.0288 58.6561C72.5366 58.6561 72.9447 58.5586 73.2531 58.3636C73.5659 58.1641 73.7246 57.9079 73.7292 57.5951C73.7246 57.3321 73.6136 57.1167 73.3959 56.9489C73.1783 56.7766 72.8427 56.6451 72.3893 56.5544L70.58 56.1939C69.5598 55.9899 68.8003 55.6362 68.3015 55.1329C67.8073 54.6296 67.5601 53.9879 67.5601 53.208C67.5601 52.5369 67.7415 51.9588 68.1043 51.4736C68.4716 50.9884 68.9862 50.6144 69.6482 50.3514C70.3148 50.0884 71.0947 49.9569 71.988 49.9569C73.3075 49.9569 74.3459 50.2357 75.1031 50.7935C75.8649 51.3512 76.3093 52.1107 76.4362 53.072Z" fill="#0986F9"/>
</svg>
